Coordinates
version=1
nRows=34
nColumns=38
inDegrees=no

Units are S.I. units (second, meters, Newtons, ...)
If the header above contains a line with 'inDegrees', this indicates whether rotational values are in degrees (yes) or radians (no).

endheader
time	pelvis_tilt	pelvis_list	pelvis_rotation	pelvis_tx	pelvis_ty	pelvis_tz	hip_flexion_r	hip_adduction_r	hip_rotation_r	knee_angle_r	ankle_angle_r	subtalar_angle_r	mtp_angle_r	hip_flexion_l	hip_adduction_l	hip_rotation_l	knee_angle_l	ankle_angle_l	subtalar_angle_l	mtp_angle_l	lumbar_extension	lumbar_bending	lumbar_rotation	arm_flex_r	arm_add_r	arm_rot_r	elbow_flex_r	pro_sup_r	wrist_flex_r	wrist_dev_r	arm_flex_l	arm_add_l	arm_rot_l	elbow_flex_l	pro_sup_l	wrist_flex_l	wrist_dev_l
0	2.90137	1.43222	-1.2124	0.686981	-0.399836	0.950503	-0.0467855	0.0109324	-0.235357	0.462982	-0.233184	0	0	-0.110768	-0.0798923	0.0357119	0.266278	-0.316152	0	0	-0.515005	0.192821	-0.117143	-0.0711748	-0.305349	-0.0355932	1.27977	1.5708	0	0	-0.103152	-0.231945	-0.0699734	1.05128	1.5708	0	0
0.01	2.94202	1.41446	-1.25105	0.686975	-0.400723	0.951177	-0.066993	0.0110417	-0.240056	0.462521	-0.232493	0	0	-0.129157	-0.0808864	0.0338776	0.269118	-0.312728	0	0	-0.537071	0.180589	-0.101649	-0.0668895	-0.312715	-0.0406795	1.27638	1.5708	0	0	-0.115369	-0.268391	-0.0236141	1.12247	1.5708	0	0
0.02	2.94461	1.41269	-1.25259	0.686811	-0.400715	0.951258	-0.0683628	0.0110027	-0.241263	0.463992	-0.232393	0	0	-0.129657	-0.0810025	0.0349243	0.272249	-0.31216	0	0	-0.537783	0.181056	-0.0967499	-0.0571509	-0.315708	-0.0405937	1.2731	1.5708	0	0	-0.0976831	-0.267799	-0.0175676	1.11547	1.5708	0	0
0.03	2.94633	1.4114	-1.25392	0.68677	-0.400678	0.951313	-0.0689332	0.0110328	-0.241179	0.465843	-0.232234	0	0	-0.130214	-0.0812112	0.0350202	0.273993	-0.312248	0	0	-0.539014	0.180837	-0.0921229	-0.0470036	-0.318523	-0.0402493	1.27089	1.5708	0	0	-0.0816925	-0.267506	-0.0129289	1.11076	1.5708	0	0
0.04	2.94655	1.40998	-1.25431	0.686846	-0.400615	0.951369	-0.0699794	0.0116971	-0.239836	0.466396	-0.232279	0	0	-0.131223	-0.0818822	0.0340984	0.27482	-0.312344	0	0	-0.539877	0.180257	-0.086787	-0.0366605	-0.321464	-0.0392042	1.26746	1.5708	0	0	-0.0647457	-0.267577	-0.00737809	1.10472	1.5708	0	0
0.05	2.95038	1.4087	-1.2576	0.686811	-0.400452	0.95137	-0.0715895	0.0114539	-0.240419	0.466436	-0.23227	0	0	-0.132418	-0.0819138	0.0335738	0.275611	-0.312064	0	0	-0.539939	0.17936	-0.0825702	-0.0257585	-0.324541	-0.0370182	1.26238	1.5708	0	0	-0.0475452	-0.267722	-0.00125912	1.09767	1.5708	0	0
0.06	2.95468	1.40773	-1.26134	0.686719	-0.400355	0.951352	-0.0725886	0.0109775	-0.241522	0.467208	-0.232011	0	0	-0.133431	-0.08159	0.03359	0.276131	-0.311739	0	0	-0.540967	0.178569	-0.0791651	-0.0141623	-0.3277	-0.0342382	1.25815	1.5708	0	0	-0.0321348	-0.267671	0.00295794	1.09354	1.5708	0	0
0.07	2.9572	1.40649	-1.26436	0.686829	-0.400318	0.951399	-0.0736024	0.0113564	-0.24111	0.468079	-0.231356	0	0	-0.134995	-0.0817632	0.0325494	0.276487	-0.311782	0	0	-0.541387	0.177591	-0.0750472	-0.000160072	-0.330883	-0.0297208	1.25026	1.5708	0	0	-0.0150944	-0.267077	0.00754924	1.08624	1.5708	0	0
0.08	2.95816	1.40561	-1.26635	0.686973	-0.400363	0.951456	-0.0738305	0.0117262	-0.239009	0.4689	-0.231194	0	0	-0.136344	-0.0819133	0.0317036	0.276132	-0.312081	0	0	-0.542488	0.176443	-0.0712431	0.0134162	-0.334003	-0.0254469	1.24349	1.5708	0	0	0.000791883	-0.266423	0.0107781	1.08085	1.5708	0	0
0.09	2.95936	1.40484	-1.26846	0.687114	-0.400307	0.951473	-0.0739995	0.0115494	-0.237342	0.469984	-0.23132	0	0	-0.138062	-0.0819889	0.0307891	0.274891	-0.312288	0	0	-0.543118	0.174891	-0.0677455	0.0272414	-0.337165	-0.0205136	1.23559	1.5708	0	0	0.0169095	-0.266078	0.0148597	1.0745	1.5708	0	0
0.1	2.96078	1.40396	-1.27072	0.687286	-0.400149	0.951509	-0.0744542	0.0110284	-0.236592	0.471498	-0.231375	0	0	-0.140136	-0.0821614	0.0294521	0.27342	-0.312303	0	0	-0.543423	0.173448	-0.0642316	0.0416528	-0.341274	-0.01356	1.22668	1.5708	0	0	0.0340192	-0.265473	0.0196739	1.06568	1.5708	0	0
0.11	2.96332	1.40305	-1.27374	0.687387	-0.400005	0.951528	-0.0753533	0.01076	-0.23615	0.472158	-0.231345	0	0	-0.142077	-0.082086	0.0285445	0.272382	-0.312126	0	0	-0.543825	0.171883	-0.0613991	0.0570485	-0.345609	-0.00522218	1.21695	1.55803	0	0	0.0511874	-0.264151	0.0238409	1.05626	1.5708	0	0
0.12	2.96564	1.40222	-1.27656	0.687475	-0.399907	0.951556	-0.0759222	0.0105693	-0.236541	0.473292	-0.231166	0	0	-0.143841	-0.0819582	0.0280428	0.271213	-0.311998	0	0	-0.544338	0.170349	-0.0587756	0.072847	-0.349958	0.00377221	1.20694	1.5457	0	0	0.0683552	-0.262336	0.027317	1.04646	1.5708	0	0
0.13	2.96512	1.40125	-1.27657	0.687567	-0.399886	0.951592	-0.0758428	0.0102818	-0.239508	0.475738	-0.231233	0	0	-0.14539	-0.08227	0.0281292	0.270374	-0.311699	0	0	-0.545111	0.169257	-0.0562664	0.0893425	-0.354099	0.0130816	1.19657	1.53352	0	0	0.0852671	-0.260223	0.0299752	1.03671	1.5708	0	0
0.14	2.96213	1.40019	-1.27396	0.687608	-0.399882	0.951627	-0.0757143	0.0103944	-0.242918	0.478176	-0.231786	0	0	-0.146657	-0.0830513	0.0284688	0.270126	-0.311358	0	0	-0.546057	0.16872	-0.054149	0.106378	-0.358328	0.0232726	1.18608	1.52122	0	0	0.101674	-0.257737	0.0315405	1.02706	1.5708	0	0
0.15	2.9628	1.39954	-1.27493	0.687588	-0.399867	0.951641	-0.0760448	0.0102063	-0.243711	0.478761	-0.232395	0	0	-0.147759	-0.082943	0.0290305	0.269714	-0.311308	0	0	-0.54699	0.167667	-0.0525741	0.123585	-0.362755	0.0344937	1.1754	1.50944	0	0	0.117684	-0.255211	0.0319799	1.01789	1.5708	0	0
0.16	2.96756	1.39908	-1.27988	0.687523	-0.399861	0.951672	-0.0766134	0.00924979	-0.243698	0.478991	-0.232128	0	0	-0.149038	-0.0819534	0.0299688	0.268791	-0.311595	0	0	-0.548406	0.166016	-0.0515359	0.1408	-0.367073	0.0461858	1.16476	1.4991	0	0	0.133314	-0.253333	0.0323406	1.00978	1.5708	0	0
0.17	2.97289	1.39822	-1.28514	0.687468	-0.399885	0.95173	-0.0778562	0.0084175	-0.24384	0.478838	-0.23044	0	0	-0.150694	-0.0810824	0.0307193	0.267724	-0.312021	0	0	-0.549005	0.165036	-0.0520045	0.160678	-0.370322	0.0604241	1.15049	1.48697	0	0	0.149436	-0.251849	0.0330886	0.998664	1.5708	0	0
0.18	2.97477	1.39749	-1.28708	0.687488	-0.399891	0.951753	-0.0789854	0.00846675	-0.243465	0.478118	-0.229793	0	0	-0.151868	-0.0809657	0.0307811	0.267075	-0.312131	0	0	-0.550428	0.164438	-0.0517957	0.178464	-0.372563	0.0709168	1.13906	1.47699	0	0	0.164715	-0.250717	0.0338089	0.989695	1.5708	0	0
0.19	2.97558	1.39674	-1.28806	0.687546	-0.399893	0.951751	-0.0803448	0.0089797	-0.242374	0.476653	-0.230028	0	0	-0.152935	-0.0810752	0.0306039	0.266689	-0.31178	0	0	-0.551478	0.16385	-0.0519825	0.197671	-0.375654	0.0844992	1.12612	1.46378	0	0	0.180206	-0.249278	0.0338741	0.9793	1.5708	0	0
0.2	2.97649	1.3959	-1.28918	0.687668	-0.399879	0.951727	-0.0814983	0.00948019	-0.241032	0.476055	-0.229819	0	0	-0.15409	-0.0814065	0.0299279	0.266436	-0.311211	0	0	-0.552737	0.16297	-0.0520866	0.216992	-0.378731	0.0985628	1.11306	1.45044	0	0	0.195635	-0.247941	0.0339666	0.969011	1.5708	0	0
0.21	2.9774	1.39501	-1.29024	0.687843	-0.399809	0.951689	-0.0824961	0.00982035	-0.240559	0.476327	-0.229023	0	0	-0.155328	-0.0819462	0.0286003	0.26598	-0.310745	0	0	-0.553837	0.161869	-0.052024	0.236328	-0.381247	0.112398	1.09899	1.43713	0	0	0.211301	-0.246775	0.0348933	0.957947	1.5708	0	0
0.22	2.97795	1.39402	-1.29068	0.687955	-0.399728	0.951681	-0.0835027	0.00988121	-0.241469	0.476981	-0.228703	0	0	-0.156595	-0.0825628	0.027451	0.265518	-0.310449	0	0	-0.555471	0.161048	-0.0515621	0.254637	-0.383678	0.124871	1.08602	1.4251	0	0	0.226762	-0.245298	0.0357697	0.947283	1.5708	0	0
0.23	2.97722	1.39272	-1.28991	0.688029	-0.399679	0.951738	-0.0846294	0.0099774	-0.242839	0.477823	-0.228789	0	0	-0.15813	-0.083415	0.0265096	0.265501	-0.31041	0	0	-0.557783	0.160552	-0.0506852	0.272744	-0.38643	0.137498	1.07361	1.41263	0	0	0.242224	-0.24332	0.0363113	0.936413	1.5708	0	0
0.24	2.97724	1.39141	-1.28975	0.688075	-0.399619	0.951784	-0.0862533	0.0102679	-0.243611	0.477532	-0.228437	0	0	-0.15965	-0.0840566	0.0256656	0.265613	-0.310077	0	0	-0.560198	0.159892	-0.0500567	0.291019	-0.389017	0.15051	1.0607	1.40046	0	0	0.257616	-0.241606	0.0374586	0.92558	1.5708	0	0
0.25	2.97848	1.39021	-1.29076	0.688098	-0.399584	0.951813	-0.0878854	0.0104022	-0.244063	0.477152	-0.227134	0	0	-0.161137	-0.084361	0.0251383	0.265457	-0.309772	0	0	-0.56239	0.159028	-0.0496549	0.309562	-0.391559	0.163985	1.04697	1.38899	0	0	0.272766	-0.240163	0.0388903	0.914606	1.5708	0	0
0.26	2.98023	1.38908	-1.29226	0.688095	-0.399578	0.95184	-0.0893125	0.0103722	-0.244636	0.477143	-0.225958	0	0	-0.162609	-0.0843588	0.025299	0.265065	-0.30965	0	0	-0.564181	0.157981	-0.0490671	0.328044	-0.39373	0.176853	1.03193	1.38012	0	0	0.28839	-0.238076	0.0405316	0.901991	1.5708	0	0
0.27	2.98243	1.3885	-1.294	0.688063	-0.399521	0.951833	-0.0901478	0.00994024	-0.24591	0.477485	-0.224922	0	0	-0.163324	-0.0840013	0.0257939	0.265034	-0.309533	0	0	-0.565564	0.157885	-0.049216	0.345465	-0.394651	0.187705	1.01861	1.37364	0	0	0.303313	-0.235447	0.0404463	0.888472	1.5708	0	0
0.28	2.98442	1.38817	-1.29574	0.688054	-0.39941	0.951808	-0.0906201	0.00940429	-0.247057	0.478246	-0.223394	0	0	-0.163695	-0.0835804	0.025932	0.265233	-0.309129	0	0	-0.567064	0.157561	-0.0489159	0.362119	-0.395592	0.19763	1.00584	1.36692	0	0	0.318051	-0.232533	0.0400815	0.875275	1.5708	0	0
0.29	2.98594	1.38871	-1.29718	0.688048	-0.399231	0.951719	-0.0898746	0.00867059	-0.247838	0.479841	-0.220601	0	0	-0.163061	-0.0828783	0.0262139	0.265657	-0.308175	0	0	-0.56828	0.156974	-0.0483127	0.377399	-0.397113	0.206544	0.995152	1.35955	0	0	0.331983	-0.229861	0.0402155	0.863908	1.5708	0	0
0.3	3.01102	1.39135	-1.3218	0.688625	-0.398487	0.950612	-0.0831002	0.00182403	-0.247832	0.497146	-0.214361	0	0	-0.161802	-0.0784978	0.0250051	0.266885	-0.305664	0	0	-0.564058	0.150478	-0.0495171	0.390773	-0.396934	0.216286	0.981355	1.34926	0	0	0.346779	-0.229182	0.044256	0.849515	1.5708	0	0
0.31	3.01163	1.3904	-1.32208	0.688661	-0.398246	0.95066	-0.0852035	0.00228781	-0.247924	0.495241	-0.217036	0	0	-0.163439	-0.0789602	0.0250411	0.266465	-0.305979	0	0	-0.566892	0.150282	-0.0485818	0.405015	-0.398403	0.224389	0.971973	1.3407	0	0	0.360074	-0.227013	0.0449078	0.840602	1.5708	0	0
0.32	2.98895	1.38591	-1.2991	0.688145	-0.398521	0.951789	-0.0947985	0.00899796	-0.250986	0.478076	-0.22396	0	0	-0.167552	-0.0838112	0.0262298	0.264556	-0.308042	0	0	-0.574866	0.156165	-0.0454123	0.422616	-0.402376	0.236468	0.961682	1.32647	0	0	0.374896	-0.222025	0.0427674	0.830181	1.5708	0	0
0.33	2.98777	1.38615	-1.29773	0.688155	-0.398301	0.951766	-0.093377	0.00844523	-0.252862	0.48194	-0.220286	0	0	-0.167397	-0.0840494	0.0264435	0.264705	-0.307233	0	0	-0.576721	0.155862	-0.0432566	0.435554	-0.404706	0.244616	0.953046	1.31359	0	0	0.388905	-0.219552	0.0448697	0.820998	1.5708	0	0
